<svg width="14" height="14" viewBox="0 0 14 14" fill="none" xmlns="http://www.w3.org/2000/svg">
<path d="M3.49998 12.8333C3.17915 12.8333 2.90459 12.7192 2.67631 12.4909C2.44804 12.2626 2.3337 11.9879 2.33331 11.6667V2.33332C2.33331 2.01249 2.44765 1.73793 2.67631 1.50966C2.90498 1.28138 3.17954 1.16705 3.49998 1.16666H10.5C10.8208 1.16666 11.0956 1.28099 11.3242 1.50966C11.5529 1.73832 11.667 2.01288 11.6666 2.33332V11.6667C11.6666 11.9875 11.5525 12.2622 11.3242 12.4909C11.096 12.7196 10.8212 12.8337 10.5 12.8333H3.49998ZM6.41665 6.41666L7.87498 5.54166L9.33331 6.41666V2.33332H6.41665V6.41666Z" fill="white"/>
</svg>
