<svg width="20" height="19" viewBox="0 0 20 19" fill="none" xmlns="http://www.w3.org/2000/svg">
<path fill-rule="evenodd" clip-rule="evenodd" d="M12.4804 1.67647C13.3977 1.67646 14.3061 1.85714 15.1536 2.20818C16.0011 2.55922 16.7711 3.07375 17.4198 3.7224C18.0684 4.37104 18.5829 5.14109 18.934 5.98859C19.285 6.83608 19.4657 7.74442 19.4657 8.66175C19.4657 12.5196 16.3383 15.6471 12.4804 15.6471C8.62255 15.6471 5.49512 12.5196 5.49512 8.66175C5.49512 4.8039 8.62255 1.67647 12.4804 1.67647ZM13.1789 9.3603H11.7819C10.0525 9.3603 8.56784 10.4077 7.92747 11.9028C8.94069 13.3235 10.6024 14.25 12.4804 14.25C14.3584 14.25 16.0201 13.3235 17.0334 11.9027C16.393 10.4077 14.9083 9.3603 13.1789 9.3603ZM12.4804 3.77205C11.323 3.77205 10.3848 4.71029 10.3848 5.86764C10.3848 7.02499 11.323 7.96323 12.4804 7.96323C13.6377 7.96323 14.576 7.02499 14.576 5.86764C14.576 4.71029 13.6378 3.77205 12.4804 3.77205Z" fill="white"/>
</svg>
