<svg width="17" height="14" viewBox="0 0 17 14" fill="none" xmlns="http://www.w3.org/2000/svg">
<path d="M8.39577 8.58743L11.7541 5.94514H5.03746L8.39577 8.58743ZM8.39577 13.2114C7.23436 13.2114 6.14291 13.0379 5.12142 12.6909C4.09994 12.3439 3.21138 11.8733 2.45576 11.2793C1.70015 10.6852 1.10209 9.98608 0.661588 9.18194C0.22109 8.37781 0.000560781 7.51906 1.06276e-06 6.60571C-0.000558655 5.69236 0.21997 4.83362 0.661588 4.02949C1.10321 3.22535 1.70126 2.52625 2.45576 1.93217C3.21026 1.3381 4.09882 0.867551 5.12142 0.52053C6.14403 0.17351 7.23548 0 8.39577 0C9.55607 0 10.6475 0.17351 11.6701 0.52053C12.6927 0.867551 13.5813 1.3381 14.3358 1.93217C15.0903 2.52625 15.6886 3.22535 16.1308 4.02949C16.573 4.83362 16.7932 5.69236 16.7915 6.60571C16.7899 7.51906 16.5693 8.37781 16.13 9.18194C15.6906 9.98608 15.0925 10.6852 14.3358 11.2793C13.579 11.8733 12.6905 12.3441 11.6701 12.6916C10.6498 13.039 9.55831 13.2123 8.39577 13.2114ZM8.39577 11.8903C10.2708 11.8903 11.859 11.3783 13.1604 10.3545C14.4617 9.33057 15.1124 8.08099 15.1124 6.60571C15.1124 5.13044 14.4617 3.88086 13.1604 2.85697C11.859 1.83309 10.2708 1.32114 8.39577 1.32114C6.52072 1.32114 4.93252 1.83309 3.63117 2.85697C2.32983 3.88086 1.67916 5.13044 1.67916 6.60571C1.67916 8.08099 2.32983 9.33057 3.63117 10.3545C4.93252 11.3783 6.52072 11.8903 8.39577 11.8903Z" fill="white"/>
</svg>
