<svg width="21" height="23" viewBox="0 0 21 23" fill="none" xmlns="http://www.w3.org/2000/svg">
<path d="M7.9035 3.20685C7.96089 2.60303 8.24135 2.04231 8.69006 1.63422C9.13878 1.22613 9.72353 1 10.3301 1C10.9366 1 11.5213 1.22613 11.9701 1.63422C12.4188 2.04231 12.6992 2.60303 12.7566 3.20685C12.7911 3.5969 12.9191 3.97291 13.1297 4.30303C13.3403 4.63316 13.6273 4.90769 13.9665 5.10339C14.3057 5.29908 14.687 5.41018 15.0782 5.42729C15.4694 5.44439 15.859 5.36699 16.2139 5.20164C16.7651 4.95141 17.3896 4.9152 17.966 5.10006C18.5424 5.28492 19.0294 5.67763 19.3322 6.20175C19.635 6.72587 19.7319 7.3439 19.6042 7.93557C19.4764 8.52723 19.1331 9.0502 18.641 9.40268C18.3206 9.62752 18.059 9.92623 17.8784 10.2735C17.6978 10.6209 17.6035 11.0065 17.6035 11.398C17.6035 11.7894 17.6978 12.1751 17.8784 12.5224C18.059 12.8698 18.3206 13.1685 18.641 13.3933C19.1331 13.7458 19.4764 14.2688 19.6042 14.8604C19.7319 15.4521 19.635 16.0701 19.3322 16.5942C19.0294 17.1184 18.5424 17.5111 17.966 17.6959C17.3896 17.8808 16.7651 17.8446 16.2139 17.5943C15.859 17.429 15.4694 17.3516 15.0782 17.3687C14.687 17.3858 14.3057 17.4969 13.9665 17.6926C13.6273 17.8883 13.3403 18.1628 13.1297 18.493C12.9191 18.8231 12.7911 19.1991 12.7566 19.5891C12.6992 20.193 12.4188 20.7537 11.9701 21.1618C11.5213 21.5699 10.9366 21.796 10.3301 21.796C9.72353 21.796 9.13878 21.5699 8.69006 21.1618C8.24135 20.7537 7.96089 20.193 7.9035 19.5891C7.86906 19.1989 7.7411 18.8228 7.53044 18.4925C7.31978 18.1623 7.03264 17.8877 6.69332 17.692C6.35401 17.4963 5.97253 17.3852 5.58119 17.3682C5.18984 17.3512 4.80017 17.4288 4.44517 17.5943C3.89401 17.8446 3.26946 17.8808 2.69308 17.6959C2.1167 17.5111 1.62972 17.1184 1.32692 16.5942C1.02412 16.0701 0.92716 15.4521 1.05492 14.8604C1.18267 14.2688 1.526 13.7458 2.01808 13.3933C2.33852 13.1685 2.60009 12.8698 2.78067 12.5224C2.96126 12.1751 3.05553 11.7894 3.05553 11.398C3.05553 11.0065 2.96126 10.6209 2.78067 10.2735C2.60009 9.92623 2.33852 9.62752 2.01808 9.40268C1.52669 9.05002 1.18397 8.52726 1.05652 7.936C0.929075 7.34473 1.02601 6.7272 1.32848 6.20342C1.63096 5.67964 2.11737 5.28703 2.69318 5.10189C3.26899 4.91675 3.89307 4.9523 4.44412 5.20164C4.79908 5.36699 5.18865 5.44439 5.57985 5.42729C5.97106 5.41018 6.35239 5.29908 6.69156 5.10339C7.03073 4.90769 7.31776 4.63316 7.52836 4.30303C7.73896 3.97291 7.86692 3.5969 7.90142 3.20685" stroke="white" stroke-width="2" stroke-linecap="round" stroke-linejoin="round"/>
<path d="M10.3295 14.5235C12.0554 14.5235 13.4545 13.1244 13.4545 11.3985C13.4545 9.67262 12.0554 8.27351 10.3295 8.27351C8.60364 8.27351 7.20453 9.67262 7.20453 11.3985C7.20453 13.1244 8.60364 14.5235 10.3295 14.5235Z" stroke="white" stroke-width="2" stroke-linecap="round" stroke-linejoin="round"/>
</svg>
