<svg width="23" height="23" viewBox="0 0 23 23" fill="none" xmlns="http://www.w3.org/2000/svg">
<path d="M14.0139 2.62492H18.6806C19.1084 2.62492 19.4584 2.24992 19.4584 1.79159C19.4584 1.33325 19.1084 0.958252 18.6806 0.958252H14.0139C13.1584 0.958252 12.4584 1.70825 12.4584 2.62492V14.2916C12.4584 15.2083 13.1584 15.9583 14.0139 15.9583H18.6806C19.1084 15.9583 19.4584 15.5833 19.4584 15.1249C19.4584 14.6666 19.1084 14.2916 18.6806 14.2916H14.0139V2.62492Z" fill="white"/>
<path d="M22.628 8.28465L21.0407 7.06618C21.0011 7.03498 20.9503 7.01355 20.8948 7.00463C20.8392 6.99572 20.7815 6.99973 20.729 7.01614C20.6764 7.03256 20.6315 7.06063 20.5998 7.09678C20.5682 7.13292 20.5513 7.17549 20.5514 7.21904V8.00078H16.5689C16.256 8.00078 16 8.1973 16 8.4375C16 8.6777 16.256 8.87423 16.5689 8.87423H20.5514V9.65597C20.5514 9.85249 20.8586 9.94857 21.035 9.80882L22.6223 8.59036C22.7361 8.50738 22.7361 8.36763 22.628 8.28465Z" fill="white"/>
</svg>
