<svg width="25" height="25" viewBox="0 0 25 25" fill="none" xmlns="http://www.w3.org/2000/svg">
<path d="M12.5 20.8333C7.90626 20.8333 4.16668 17.0937 4.16668 12.5C4.16668 7.90624 7.90626 4.16666 12.5 4.16666C17.0938 4.16666 20.8333 7.90624 20.8333 12.5C20.8333 17.0937 17.0938 20.8333 12.5 20.8333ZM12.5 2.08333C11.1321 2.08333 9.77753 2.35276 8.51372 2.87625C7.24992 3.39974 6.10159 4.16702 5.13431 5.1343C3.18081 7.0878 2.08334 9.73732 2.08334 12.5C2.08334 15.2627 3.18081 17.9122 5.13431 19.8657C6.10159 20.833 7.24992 21.6003 8.51372 22.1237C9.77753 22.6472 11.1321 22.9167 12.5 22.9167C15.2627 22.9167 17.9122 21.8192 19.8657 19.8657C21.8192 17.9122 22.9167 15.2627 22.9167 12.5C22.9167 11.1321 22.6472 9.77752 22.1238 8.51371C21.6003 7.2499 20.833 6.10158 19.8657 5.1343C18.8984 4.16702 17.7501 3.39974 16.4863 2.87625C15.2225 2.35276 13.8679 2.08333 12.5 2.08333ZM13.5417 7.29166H11.4583V11.4583H7.29168V13.5417H11.4583V17.7083H13.5417V13.5417H17.7083V11.4583H13.5417V7.29166Z" fill="white"/>
</svg>
