<svg width="22" height="22" viewBox="0 0 22 22" fill="none" xmlns="http://www.w3.org/2000/svg">
<path d="M13.0273 16.1433L14.3083 14.8624L18.1692 18.6961L16.861 19.9861L13.0273 16.1433ZM16.8065 1.81689C17.6498 1.81689 18.4586 2.15189 19.0549 2.74818C19.6511 3.34447 19.9861 4.15322 19.9861 4.99651C19.9861 5.83979 19.6511 6.64854 19.0549 7.24483C18.4586 7.84113 17.6498 8.17612 16.8065 8.17612C15.9632 8.17612 15.1545 7.84113 14.5582 7.24483C13.9619 6.64854 13.6269 5.83979 13.6269 4.99651C13.6269 4.15322 13.9619 3.34447 14.5582 2.74818C15.1545 2.15189 15.9632 1.81689 16.8065 1.81689ZM2.03495 6.45913L4.6059 3.88819C4.77919 3.71786 5.01246 3.62241 5.25544 3.62241C5.49843 3.62241 5.7317 3.71786 5.90499 3.88819L13.5997 11.601C13.954 11.9553 13.954 12.5276 13.5997 12.8819L11.0287 15.4438C10.9449 15.5301 10.8446 15.5986 10.7338 15.6455C10.623 15.6923 10.504 15.7164 10.3837 15.7164C10.2634 15.7164 10.1444 15.6923 10.0336 15.6455C9.92279 15.5986 9.82252 15.5301 9.7387 15.4438L2.03495 7.74914C1.68065 7.38576 1.68065 6.81343 2.03495 6.45913Z" fill="white"/>
</svg>
