<svg width="108" height="105" viewBox="0 0 108 105" fill="none" xmlns="http://www.w3.org/2000/svg">
<g opacity="0.5">
<path fill-rule="evenodd" clip-rule="evenodd" d="M68.9705 9.26471C74.0399 9.26469 79.0597 10.2632 83.7433 12.2031C88.4268 14.1431 92.6824 16.9865 96.267 20.5712C99.8516 24.1558 102.695 28.4113 104.635 33.0948C106.575 37.7784 107.574 42.7981 107.574 47.8676C107.574 69.1874 90.2904 86.4706 68.9705 86.4706C47.6509 86.4706 30.3677 69.1874 30.3677 47.8676C30.3677 26.5479 47.6509 9.26471 68.9705 9.26471ZM72.8309 51.728H65.1103C55.5534 51.728 47.3485 57.5161 43.8096 65.7785C49.409 73.6301 58.5919 78.7499 68.9705 78.7499C79.3492 78.7499 88.5321 73.6301 94.1316 65.7779C90.5927 57.5161 82.3879 51.728 72.8309 51.728ZM68.9705 20.8456C62.5746 20.8456 57.3897 26.0306 57.3897 32.4265C57.3897 38.8224 62.5746 44.0073 68.9705 44.0073C75.3664 44.0073 80.5514 38.8224 80.5514 32.4265C80.5514 26.0306 75.3666 20.8456 68.9705 20.8456Z" fill="white"/>
</g>
</svg>
