<svg width="25" height="25" viewBox="0 0 25 25" fill="none" xmlns="http://www.w3.org/2000/svg">
<circle cx="12.5" cy="12.5" r="12.5" fill="#D9D9D9" fill-opacity="0.1"/>
<path d="M15.9166 9.25116C17.1854 9.25816 17.8725 9.31474 18.3205 9.76274C18.8333 10.2755 18.8333 11.1003 18.8333 12.75V13.3333C18.8333 14.9836 18.8333 15.8084 18.3205 16.3212C17.8084 16.8333 16.983 16.8333 15.3333 16.8333H10.6666C9.01696 16.8333 8.19154 16.8333 7.67938 16.3212C7.16663 15.8078 7.16663 14.9836 7.16663 13.3333V12.75C7.16663 11.1003 7.16663 10.2755 7.67938 9.76274C8.12738 9.31474 8.81454 9.25816 10.0833 9.25116" stroke="#CECECE" stroke-width="1.5" stroke-linecap="round"/>
<path d="M13 12.75V5.16669M13 5.16669L14.75 7.20835M13 5.16669L11.25 7.20835" stroke="#CECECE" stroke-width="1.5" stroke-linecap="round" stroke-linejoin="round"/>
</svg>
