<svg width="16" height="16" viewBox="0 0 16 16" fill="none" xmlns="http://www.w3.org/2000/svg">
<path d="M10.1473 1.66666C10.802 1.66666 11.4217 1.81599 11.9737 2.08199L10.9057 3.14199C10.7593 3.28675 10.6432 3.4591 10.5639 3.64906C10.4846 3.83902 10.4438 4.04282 10.4438 4.24866C10.4438 4.4545 10.4846 4.65829 10.5639 4.84825C10.6432 5.03821 10.7593 5.21056 10.9057 5.35532C11.2023 5.64892 11.6028 5.8136 12.0202 5.8136C12.4375 5.8136 12.838 5.64892 13.1347 5.35532L14.0857 4.41132C14.2457 4.85199 14.3333 5.32732 14.3333 5.82266C14.3333 8.11832 12.459 9.97899 10.1473 9.97899C9.594 9.97899 9.066 9.87232 8.583 9.67899L4.35667 13.875C4.06018 14.1686 3.65978 14.3333 3.2425 14.3333C2.82522 14.3333 2.42481 14.1686 2.12833 13.875C1.98215 13.7302 1.8661 13.558 1.7869 13.3681C1.70771 13.1782 1.66693 12.9745 1.66693 12.7688C1.66693 12.5631 1.70771 12.3594 1.7869 12.1696C1.8661 11.9797 1.98215 11.8074 2.12833 11.6627L6.31733 7.50332C6.08168 6.9744 5.96025 6.4017 5.961 5.82266C5.961 3.52766 7.83533 1.66666 10.1473 1.66666Z" fill="white" stroke="white" stroke-width="2" stroke-linejoin="round"/>
</svg>
