<svg width="25" height="25" viewBox="0 0 25 25" fill="none" xmlns="http://www.w3.org/2000/svg">
<path fill-rule="evenodd" clip-rule="evenodd" d="M20.6251 10.6042C20.3022 7.29172 18.3438 2.08337 12.2917 2.08337C6.23965 2.08337 4.2813 7.29172 3.9584 10.6042C2.82559 11.0342 2.07837 12.1218 2.0834 13.3334V14.7917C2.0834 16.4026 3.38926 17.7084 5.00005 17.7084C6.61089 17.7084 7.91675 16.4025 7.91675 14.7917V13.3334C7.91148 12.1479 7.19175 11.0826 6.0938 10.6355C6.30215 8.71877 7.323 4.16672 12.2917 4.16672C17.2605 4.16672 18.2709 8.71877 18.4792 10.6355C17.3835 11.0836 16.6674 12.1496 16.6667 13.3334V14.7917C16.669 15.3405 16.8255 15.8777 17.1183 16.3418C17.4112 16.806 17.8286 17.1784 18.323 17.4167C17.8855 18.2396 16.7709 19.3542 14.0313 19.6875C13.4837 18.856 12.4242 18.5282 11.5026 18.9052C10.5811 19.2821 10.055 20.2585 10.2472 21.2355C10.4394 22.2124 11.296 22.9167 12.2917 22.9167C12.6776 22.9146 13.0552 22.8053 13.3826 22.6012C13.7099 22.397 13.9742 22.106 14.1459 21.7605C18.6147 21.25 20.0417 18.948 20.4897 17.5938C21.7014 17.2012 22.5164 16.0654 22.5001 14.7917V13.3334C22.5051 12.1218 21.7579 11.0342 20.6251 10.6042ZM5.8334 14.7917C5.8334 15.2519 5.4603 15.625 5.00005 15.625C4.5398 15.625 4.16675 15.252 4.16675 14.7917V13.3334C4.16591 13.2234 4.18684 13.1144 4.22834 13.0125C4.26984 12.9107 4.33109 12.818 4.40856 12.74C4.48602 12.6619 4.57817 12.6 4.67969 12.5577C4.78121 12.5154 4.8901 12.4936 5.00007 12.4936C5.11005 12.4936 5.21893 12.5154 5.32046 12.5577C5.42198 12.6 5.51413 12.6619 5.59159 12.74C5.66906 12.818 5.73031 12.9107 5.77181 13.0125C5.81331 13.1144 5.83424 13.2234 5.8334 13.3334V14.7917ZM18.7501 13.3334C18.7501 12.8731 19.1231 12.5 19.5834 12.5C20.0437 12.5 20.4167 12.8731 20.4167 13.3334V14.7917C20.4167 15.2519 20.0437 15.625 19.5834 15.625C19.1231 15.625 18.7501 15.252 18.7501 14.7917V13.3334Z" fill="white"/>
</svg>
