<svg width="19" height="21" viewBox="0 0 19 21" fill="none" xmlns="http://www.w3.org/2000/svg">
<path fill-rule="evenodd" clip-rule="evenodd" d="M17.2549 8.58901C16.9544 5.25001 15.132 0 9.49992 0C3.86783 0 2.04539 5.25001 1.7449 8.58901C0.690704 9.02238 -0.00465679 10.1187 2.34809e-05 11.34V12.81C2.34809e-05 14.4337 1.21526 15.75 2.71426 15.75C4.21331 15.75 5.42854 14.4337 5.42854 12.81V11.34C5.42364 10.145 4.75386 9.07125 3.73211 8.62051C3.926 6.68848 4.876 2.10001 9.49992 2.10001C14.1238 2.10001 15.0641 6.68848 15.258 8.62051C14.2384 9.07224 13.5719 10.1467 13.5713 11.34V12.81C13.5734 13.3632 13.719 13.9046 13.9915 14.3725C14.2641 14.8404 14.6525 15.2158 15.1126 15.456C14.7055 16.2855 13.6682 17.409 11.1187 17.745C10.6091 16.9068 9.62315 16.5763 8.76553 16.9563C7.90795 17.3363 7.41843 18.3205 7.59728 19.3053C7.77613 20.2901 8.57332 21 9.49992 21C9.85896 20.9978 10.2104 20.8877 10.515 20.6819C10.8197 20.4761 11.0656 20.1828 11.2254 19.8345C15.384 19.32 16.7121 16.9995 17.1289 15.6345C18.2566 15.2388 19.015 14.0939 18.9998 12.81V11.34C19.0045 10.1187 18.3091 9.02238 17.2549 8.58901ZM3.48978 12.81C3.48978 13.2739 3.14257 13.65 2.71426 13.65C2.28595 13.65 1.93879 13.2739 1.93879 12.81V11.34C1.93801 11.2291 1.95749 11.1192 1.99611 11.0166C2.03473 10.9139 2.09173 10.8205 2.16382 10.7419C2.23591 10.6632 2.32166 10.6007 2.41614 10.5581C2.51061 10.5155 2.61194 10.4935 2.71428 10.4935C2.81662 10.4935 2.91795 10.5155 3.01243 10.5581C3.10691 10.6007 3.19266 10.6632 3.26475 10.7419C3.33684 10.8205 3.39384 10.9139 3.43246 11.0166C3.47108 11.1192 3.49056 11.2291 3.48978 11.34V12.81ZM15.51 11.34C15.51 10.8761 15.8572 10.5 16.2855 10.5C16.7139 10.5 17.0611 10.8761 17.0611 11.34V12.81C17.0611 13.2739 16.7139 13.65 16.2855 13.65C15.8572 13.65 15.51 13.2739 15.51 12.81V11.34Z" fill="white"/>
</svg>
