<svg width="12" height="14" viewBox="0 0 12 14" fill="none" xmlns="http://www.w3.org/2000/svg">
<path d="M1.5 14C1.0875 14 0.7345 13.8696 0.441 13.6087C0.1475 13.3478 0.0005 13.0338 0 12.6667V6C0 5.63333 0.147 5.31956 0.441 5.05867C0.735 4.79778 1.088 4.66711 1.5 4.66667H2.25V3.33333C2.25 2.41111 2.61575 1.62511 3.34725 0.975334C4.07875 0.325556 4.963 0.000444899 6 4.55063e-07C7.037 -0.000443989 7.9215 0.324667 8.6535 0.975334C9.3855 1.626 9.751 2.412 9.75 3.33333V4.66667H10.5C10.9125 4.66667 11.2657 4.79733 11.5597 5.05867C11.8537 5.32 12.0005 5.63378 12 6V12.6667C12 13.0333 11.8532 13.3473 11.5597 13.6087C11.2662 13.87 10.913 14.0004 10.5 14H1.5ZM6 10.6667C6.4125 10.6667 6.76575 10.5362 7.05975 10.2753C7.35375 10.0144 7.5005 9.70044 7.5 9.33333C7.4995 8.96622 7.35275 8.65244 7.05975 8.392C6.76675 8.13156 6.4135 8.00089 6 8C5.5865 7.99911 5.2335 8.12978 4.941 8.392C4.6485 8.65422 4.5015 8.968 4.5 9.33333C4.4985 9.69867 4.6455 10.0127 4.941 10.2753C5.2365 10.538 5.5895 10.6684 6 10.6667ZM3.75 4.66667H8.25V3.33333C8.25 2.77778 8.03125 2.30556 7.59375 1.91667C7.15625 1.52778 6.625 1.33333 6 1.33333C5.375 1.33333 4.84375 1.52778 4.40625 1.91667C3.96875 2.30556 3.75 2.77778 3.75 3.33333V4.66667Z" fill="white"/>
</svg>
